HIERARCHY
ROOT Hips
{
	OFFSET 55.042400 -13.094914 85.520699
	CHANNELS 6 Xposition Yposition Zposition Xrotation Yrotation Zrotation
	JOINT spine
	{
		OFFSET 0.000000 -0.367607 6.392601
		CHANNELS 3 Xrotation Yrotation Zrotation
		JOINT spine1
		{
			OFFSET 0.000000 -0.000001 9.176109
			CHANNELS 3 Xrotation Yrotation Zrotation
			JOINT spine2
			{
				OFFSET 0.000000 -0.000002 8.792381
				CHANNELS 3 Xrotation Yrotation Zrotation
				JOINT Neck
				{
					OFFSET 0.000000 -1.076243 22.573700
					CHANNELS 3 Xrotation Yrotation Zrotation
					JOINT Head
					{
						OFFSET 0.000000 -0.000001 6.820114
						CHANNELS 3 Xrotation Yrotation Zrotation
						End Site
						{
							OFFSET 0.000000 5.444267 16.508499
						}
					}
				}
				JOINT RightShoulder
				{
					OFFSET -3.702209 0.515507 9.495087
					CHANNELS 3 Xrotation Yrotation Zrotation
					JOINT RightArm
					{
						OFFSET 0.000000 -0.000003 12.453705
						CHANNELS 3 Xrotation Yrotation Zrotation
						JOINT RightArmRoll
						{
							OFFSET 0.000000 -0.000001 6.286865
							CHANNELS 3 Xrotation Yrotation Zrotation
							JOINT RightForeArm
							{
								OFFSET 0.000000 -0.000003 18.311401
								CHANNELS 3 Xrotation Yrotation Zrotation
								JOINT RightForeArmRoll
								{
									OFFSET 0.000000 -0.000001 7.054825
									CHANNELS 3 Xrotation Yrotation Zrotation
									JOINT RightHand
									{
										OFFSET 0.000000 -0.000002 14.157501
										CHANNELS 3 Xrotation Yrotation Zrotation
										End Site
										{
											OFFSET 0.000000 0.000000 0.100006
										}
									}
								}
							}
						}
					}
				}
				JOINT LeftShoulder
				{
					OFFSET 3.702209 0.515507 9.495087
					CHANNELS 3 Xrotation Yrotation Zrotation
					JOINT LeftArm
					{
						OFFSET 0.000000 -0.000003 12.453705
						CHANNELS 3 Xrotation Yrotation Zrotation
						JOINT LeftArmRoll
						{
							OFFSET 0.000000 -0.000001 6.286865
							CHANNELS 3 Xrotation Yrotation Zrotation
							JOINT LeftForeArm
							{
								OFFSET 0.000000 -0.000003 18.311401
								CHANNELS 3 Xrotation Yrotation Zrotation
								JOINT LeftForeArmRoll
								{
									OFFSET 0.000000 -0.000001 7.054825
									CHANNELS 3 Xrotation Yrotation Zrotation
									JOINT LeftHand
									{
										OFFSET 0.000000 -0.000002 14.157501
										CHANNELS 3 Xrotation Yrotation Zrotation
										End Site
										{
											OFFSET 0.000000 0.000000 0.100006
										}
									}
								}
							}
						}
					}
				}
			}
		}
	}
	JOINT RightUpLeg
	{
		OFFSET -5.666161 0.871611 -1.039032
		CHANNELS 3 Xrotation Yrotation Zrotation
		JOINT RightUpLegRoll
		{
			OFFSET 0.000000 -0.000003 16.600502
			CHANNELS 3 Xrotation Yrotation Zrotation
			JOINT RightLeg
			{
				OFFSET 0.000000 0.000003 -20.557198
				CHANNELS 3 Xrotation Yrotation Zrotation
				JOINT RightLegRoll
				{
					OFFSET 0.000000 -0.000003 20.624397
					CHANNELS 3 Xrotation Yrotation Zrotation
					JOINT RightFoot
					{
						OFFSET 0.000000 -0.000003 17.166397
						CHANNELS 3 Xrotation Yrotation Zrotation
						JOINT RightToeBase
						{
							OFFSET 0.000000 -0.000003 14.350204
							CHANNELS 3 Xrotation Yrotation Zrotation
							End Site
							{
								OFFSET 0.006081 0.801059 6.949707
							}
						}
					}
				}
			}
		}
	}
	JOINT LeftUpLeg
	{
		OFFSET 5.666161 0.871611 -1.039032
		CHANNELS 3 Xrotation Yrotation Zrotation
		JOINT LeftUpLegRoll
		{
			OFFSET 0.000000 -0.000003 16.600601
			CHANNELS 3 Xrotation Yrotation Zrotation
			JOINT LeftLeg
			{
				OFFSET 0.000000 -0.000004 20.557098
				CHANNELS 3 Xrotation Yrotation Zrotation
				JOINT LeftLegRoll
				{
					OFFSET 0.000000 -0.000003 20.815102
					CHANNELS 3 Xrotation Yrotation Zrotation
					JOINT LeftFoot
					{
						OFFSET 0.000000 -0.000003 16.975708
						CHANNELS 3 Xrotation Yrotation Zrotation
						JOINT LeftToeBase
						{
							OFFSET 0.000000 -0.000003 14.350204
							CHANNELS 3 Xrotation Yrotation Zrotation
							End Site
							{
								OFFSET -0.027260 0.801060 6.949707
							}
						}
					}
				}
			}
		}
	}
}
MOTION
Frames: 5
Frame Time: 0.041667
56.638596 -12.665017 85.449402 -4.174572 0.614074 -18.698276 -1.017128 0.503699 -0.161124 1.957835 1.010590 -0.317077 3.602987 1.006737 -0.329168 10.831988 -1.711197 4.003145 7.436913 4.097557 3.613697 -0.821878 -62.734202 -1.397659 -45.556515 -112.975004 -39.252438 -0.000001 0.000035 -0.000005 3.627650 -14.761364 0.210661 0.000000 0.000001 -2.999987 -5.000207 -7.998764 0.000165 0.767456 56.487638 -1.232893 -38.083506 115.160992 32.252806 -0.000001 0.000001 0.000003 1.287006 8.850265 0.476916 -0.000001 0.000010 3.000009 -5.000253 7.998862 -0.000127 3.322557 -172.238916 4.271080 -179.999991 0.000004 -1.154994 170.347390 -4.791519 -0.812941 -0.000004 -0.000002 0.170376 71.986758 6.801712 2.177229 25.692347 -7.354251 0.363522 0.884148 174.709627 0.500911 -0.000005 -0.000005 -1.017100 -7.127594 0.693999 0.690269 -0.000003 0.000003 0.089582 68.506244 -6.033238 -4.360827 25.457056 7.355617 -0.000257 
56.642395 -12.666313 85.454910 -4.172040 0.613490 -18.696149 -1.019100 0.503808 -0.162426 1.954773 1.010401 -0.319782 3.599936 1.006540 -0.331871 10.863838 -1.734379 4.003880 7.405200 4.135885 3.611784 -0.799866 -62.742329 -1.373235 -45.564380 -112.966035 -39.257612 -0.000001 0.000035 -0.000008 3.623835 -14.761922 0.209653 0.000002 -0.000000 -2.999991 -5.000212 -7.998763 0.000165 0.754076 56.490814 -1.216561 -38.086976 115.154927 32.255681 -0.000001 0.000001 0.000003 1.279002 8.853140 0.476907 0.000002 0.000010 3.000010 -5.000253 7.998861 -0.000126 3.317882 -172.237878 4.272237 -179.999991 0.000005 -1.154991 170.344672 -4.793447 -0.813503 -0.000005 -0.000002 0.170377 71.987510 6.801724 2.177286 25.692347 -7.354253 0.362793 0.876323 174.712619 0.508890 -0.000005 -0.000005 -1.017101 -7.131684 0.686907 0.690271 -0.000003 0.000003 0.089586 68.508068 -6.029574 -4.369933 25.457058 7.355619 -0.000258 
56.635895 -12.662617 85.453194 -4.169189 0.612815 -18.693931 -1.021327 0.503973 -0.163793 1.951253 1.010294 -0.322648 3.596414 1.006415 -0.334730 10.899601 -1.759566 4.004740 7.370204 4.177055 3.609850 -0.774038 -62.751373 -1.344536 -45.572286 -112.955742 -39.261922 -0.000002 0.000035 -0.000008 3.619526 -14.762289 0.208537 -0.000000 0.000000 -2.999989 -5.000211 -7.998763 0.000163 0.741775 56.494199 -1.201466 -38.089492 115.148588 32.257126 -0.000001 0.000000 0.000003 1.270335 8.856230 0.476897 -0.000000 0.000010 3.000009 -5.000252 7.998861 -0.000127 3.312783 -172.236839 4.273424 -179.999991 0.000005 -1.154993 170.341817 -4.796371 -0.813248 -0.000003 -0.000002 0.170376 71.988370 6.801727 2.177332 25.692349 -7.354256 0.362043 0.867855 174.715597 0.517342 -0.000005 -0.000004 -1.017099 -7.136013 0.679427 0.690279 -0.000004 0.000004 0.089582 68.509932 -6.025662 -4.379685 25.457054 7.355619 -0.000257 
56.645096 -12.665414 85.448509 -4.166107 0.612073 -18.691520 -1.023718 0.504176 -0.165211 1.947412 1.010226 -0.325620 3.592575 1.006349 -0.337705 10.938179 -1.786151 4.005706 7.332918 4.220215 3.607922 -0.745545 -62.761229 -1.312842 -45.580742 -112.944350 -39.266187 -0.000002 0.000035 -0.000006 3.614878 -14.762658 0.207359 0.000002 -0.000000 -2.999989 -5.000209 -7.998762 0.000163 0.730219 56.497863 -1.187235 -38.090835 115.141908 32.257129 0.000001 0.000000 0.000004 1.261207 8.859479 0.476885 0.000000 0.000011 3.000012 -5.000250 7.998861 -0.000125 3.307381 -172.235787 4.274635 -179.999991 0.000005 -1.154992 170.338825 -4.799277 -0.812997 -0.000004 -0.000003 0.170378 71.989333 6.801728 2.177275 25.692352 -7.354248 0.361292 0.858934 174.718589 0.526120 -0.000005 -0.000004 -1.017099 -7.140512 0.671678 0.690281 -0.000003 0.000003 0.089583 68.511859 -6.021583 -4.389906 25.457056 7.355618 -0.000258 
56.639893 -12.659115 85.452400 -4.162910 0.611297 -18.689009 -1.026208 0.504400 -0.166655 1.943381 1.010189 -0.328654 3.588544 1.006294 -0.340743 10.978264 -1.813526 4.006728 7.294323 4.264514 3.606034 -0.715509 -62.771392 -1.279427 -45.588647 -112.932745 -39.269496 -0.000001 0.000037 -0.000006 3.610021 -14.762933 0.206135 0.000003 -0.000000 -2.999988 -5.000213 -7.998763 0.000161 0.719083 56.501531 -1.173490 -38.093331 115.134368 32.258188 0.000000 0.000000 0.000002 1.251818 8.862808 0.476873 -0.000000 0.000010 3.000011 -5.000253 7.998861 -0.000130 3.301819 -172.234749 4.275859 -179.999991 0.000004 -1.154995 170.335820 -4.802198 -0.812757 -0.000005 -0.000003 0.170375 71.990296 6.801726 2.177216 25.692352 -7.354250 0.360532 0.849758 174.720583 0.535069 -0.000005 -0.000004 -1.017100 -7.145122 0.663772 0.690285 -0.000003 0.000004 0.089581 68.513867 -6.017403 -4.400400 25.457052 7.355617 -0.000256 
